<svg xmlns="http://www.w3.org/2000/svg" viewBox="0 0 24 24">
  <path
    d="M12 2.25C9.6 5.52 5.5 9.84 5.5 14.17A6.5 6.5 0 0 0 12 20.67a6.5 6.5 0 0 0 6.5-6.5C18.5 9.84 14.4 5.52 12 2.25Z"
    fill="#1557b0"
    stroke="#d9f1ff"
    stroke-linejoin="round"
    stroke-width="1.25"
  />
  <path
    d="M12 4.85C10.05 7.42 7.55 10.42 7.55 13.8A4.47 4.47 0 0 0 12 18.27a4.47 4.47 0 0 0 4.45-4.47c0-3.38-2.5-6.38-4.45-8.95Z"
    fill="#92dcff"
    opacity="0.95"
  />
  <path
    d="M9.2 13.55c0 1.54.88 2.71 2.2 3.16-1.98.15-3.44-1.28-3.44-3.25 0-1.2.56-2.3 1.76-3.8-.34.96-.52 1.67-.52 2.46Z"
    fill="#ffffff"
    opacity="0.45"
  />
</svg>